<mxfile host="app.diagrams.net" agent="Mozilla/5.0 (Windows NT 10.0; Win64; x64) AppleWebKit/537.36 (KHTML, like Gecko) Chrome/124.0.0.0 Safari/537.36 SLBrowser/9.0.5.8121 SLBChan/33 SLBVPV/64-bit" version="24.7.7">
  <diagram name="第 1 页" id="zv5c9dIbN6kBxqN3B4h9">
    <mxGraphModel dx="2345" dy="636" grid="1" gridSize="10" guides="1" tooltips="1" connect="1" arrows="1" fold="1" page="1" pageScale="1" pageWidth="827" pageHeight="1169" math="0" shadow="0">
      <root>
        <mxCell id="0" />
        <mxCell id="1" parent="0" />
        <mxCell id="AlXySb3WD6Xx3yzlpo8Q-1" value="上游核心广播MQ" style="shape=step;perimeter=stepPerimeter;whiteSpace=wrap;html=1;fixedSize=1;" vertex="1" parent="1">
          <mxGeometry x="100" y="135" width="140" height="80" as="geometry" />
        </mxCell>
        <mxCell id="AlXySb3WD6Xx3yzlpo8Q-3" value="&lt;font style=&quot;font-size: 14px;&quot;&gt;日间返账批&lt;/font&gt;&lt;div&gt;&lt;font size=&quot;3&quot;&gt;(贷款主档+银行承兑)&lt;/font&gt;&lt;/div&gt;" style="rounded=1;whiteSpace=wrap;html=1;" vertex="1" parent="1">
          <mxGeometry x="-110" y="138" width="160" height="70" as="geometry" />
        </mxCell>
        <mxCell id="AlXySb3WD6Xx3yzlpo8Q-4" value="AccountLog" style="shape=cylinder3;whiteSpace=wrap;html=1;boundedLbl=1;backgroundOutline=1;size=15;" vertex="1" parent="1">
          <mxGeometry x="630" y="127.5" width="70" height="95" as="geometry" />
        </mxCell>
        <mxCell id="AlXySb3WD6Xx3yzlpo8Q-5" value="&lt;font style=&quot;font-size: 14px;&quot;&gt;批处理接收消息进行返账处理&lt;/font&gt;" style="shape=process;whiteSpace=wrap;html=1;backgroundOutline=1;" vertex="1" parent="1">
          <mxGeometry x="354" y="65" width="140" height="70" as="geometry" />
        </mxCell>
        <mxCell id="AlXySb3WD6Xx3yzlpo8Q-6" value="MQ" style="ellipse;shape=cloud;whiteSpace=wrap;html=1;" vertex="1" parent="1">
          <mxGeometry x="364" y="143" width="120" height="80" as="geometry" />
        </mxCell>
        <mxCell id="AlXySb3WD6Xx3yzlpo8Q-7" value="" style="endArrow=classic;html=1;rounded=0;exitX=1;exitY=0.5;exitDx=0;exitDy=0;entryX=0.07;entryY=0.4;entryDx=0;entryDy=0;entryPerimeter=0;" edge="1" parent="1" source="AlXySb3WD6Xx3yzlpo8Q-1" target="AlXySb3WD6Xx3yzlpo8Q-6">
          <mxGeometry width="50" height="50" relative="1" as="geometry">
            <mxPoint x="310" y="290" as="sourcePoint" />
            <mxPoint x="360" y="240" as="targetPoint" />
          </mxGeometry>
        </mxCell>
        <mxCell id="AlXySb3WD6Xx3yzlpo8Q-8" value="" style="endArrow=classic;html=1;rounded=0;exitX=0.925;exitY=0.395;exitDx=0;exitDy=0;exitPerimeter=0;entryX=0;entryY=0.5;entryDx=0;entryDy=0;entryPerimeter=0;" edge="1" parent="1" source="AlXySb3WD6Xx3yzlpo8Q-6" target="AlXySb3WD6Xx3yzlpo8Q-4">
          <mxGeometry width="50" height="50" relative="1" as="geometry">
            <mxPoint x="520" y="280" as="sourcePoint" />
            <mxPoint x="570" y="230" as="targetPoint" />
          </mxGeometry>
        </mxCell>
        <mxCell id="AlXySb3WD6Xx3yzlpo8Q-10" value="Container" style="swimlane;" vertex="1" parent="1">
          <mxGeometry x="870" y="90" width="170" height="160" as="geometry" />
        </mxCell>
        <mxCell id="AlXySb3WD6Xx3yzlpo8Q-12" value="2.实体转换" style="text;html=1;align=center;verticalAlign=middle;resizable=0;points=[];autosize=1;strokeColor=none;fillColor=none;" vertex="1" parent="AlXySb3WD6Xx3yzlpo8Q-10">
          <mxGeometry x="30" y="95" width="80" height="30" as="geometry" />
        </mxCell>
        <mxCell id="AlXySb3WD6Xx3yzlpo8Q-11" value="1.MQ相关" style="text;html=1;align=center;verticalAlign=middle;resizable=0;points=[];autosize=1;strokeColor=none;fillColor=none;" vertex="1" parent="AlXySb3WD6Xx3yzlpo8Q-10">
          <mxGeometry x="30" y="37.5" width="80" height="30" as="geometry" />
        </mxCell>
        <mxCell id="AlXySb3WD6Xx3yzlpo8Q-13" value="&lt;div&gt;&lt;span style=&quot;font-size: 14px;&quot;&gt;业务批复重占用(合同-支用)&lt;br&gt;释放批复额度&lt;/span&gt;&lt;/div&gt;" style="rounded=1;whiteSpace=wrap;html=1;" vertex="1" parent="1">
          <mxGeometry x="-110" y="340" width="180" height="70" as="geometry" />
        </mxCell>
        <mxCell id="AlXySb3WD6Xx3yzlpo8Q-14" value="&lt;font style=&quot;font-size: 14px;&quot;&gt;核心&lt;/font&gt;" style="text;html=1;align=center;verticalAlign=middle;resizable=0;points=[];autosize=1;strokeColor=none;fillColor=none;" vertex="1" parent="1">
          <mxGeometry x="130" y="105" width="50" height="30" as="geometry" />
        </mxCell>
        <mxCell id="AlXySb3WD6Xx3yzlpo8Q-15" value="批处理接口存入中间表" style="shape=partialRectangle;whiteSpace=wrap;html=1;left=0;right=0;fillColor=none;" vertex="1" parent="1">
          <mxGeometry x="730" y="143" width="120" height="60" as="geometry" />
        </mxCell>
        <mxCell id="AlXySb3WD6Xx3yzlpo8Q-16" value="获取需要处理的合同列表" style="shape=process;whiteSpace=wrap;html=1;backgroundOutline=1;" vertex="1" parent="1">
          <mxGeometry x="140" y="345" width="180" height="60" as="geometry" />
        </mxCell>
        <mxCell id="AlXySb3WD6Xx3yzlpo8Q-22" value="" style="group" vertex="1" connectable="0" parent="1">
          <mxGeometry x="440" y="305" width="110" height="100" as="geometry" />
        </mxCell>
        <mxCell id="AlXySb3WD6Xx3yzlpo8Q-17" value="" style="shape=link;html=1;rounded=0;" edge="1" parent="AlXySb3WD6Xx3yzlpo8Q-22">
          <mxGeometry width="100" relative="1" as="geometry">
            <mxPoint y="50" as="sourcePoint" />
            <mxPoint x="100" y="50" as="targetPoint" />
          </mxGeometry>
        </mxCell>
        <mxCell id="AlXySb3WD6Xx3yzlpo8Q-18" value="" style="shape=link;html=1;rounded=0;" edge="1" parent="AlXySb3WD6Xx3yzlpo8Q-22">
          <mxGeometry width="100" relative="1" as="geometry">
            <mxPoint y="74.5" as="sourcePoint" />
            <mxPoint x="100" y="74.5" as="targetPoint" />
          </mxGeometry>
        </mxCell>
        <mxCell id="AlXySb3WD6Xx3yzlpo8Q-19" value="" style="shape=link;html=1;rounded=0;" edge="1" parent="AlXySb3WD6Xx3yzlpo8Q-22">
          <mxGeometry width="100" relative="1" as="geometry">
            <mxPoint y="100" as="sourcePoint" />
            <mxPoint x="100" y="100" as="targetPoint" />
          </mxGeometry>
        </mxCell>
        <mxCell id="AlXySb3WD6Xx3yzlpo8Q-20" value="&lt;font style=&quot;font-size: 14px;&quot;&gt;多线程进程处理&lt;/font&gt;" style="text;html=1;align=center;verticalAlign=middle;whiteSpace=wrap;rounded=0;" vertex="1" parent="AlXySb3WD6Xx3yzlpo8Q-22">
          <mxGeometry width="110" height="30" as="geometry" />
        </mxCell>
        <mxCell id="AlXySb3WD6Xx3yzlpo8Q-23" value="" style="endArrow=classic;html=1;rounded=0;exitX=1;exitY=0.5;exitDx=0;exitDy=0;" edge="1" parent="1" source="AlXySb3WD6Xx3yzlpo8Q-16">
          <mxGeometry width="50" height="50" relative="1" as="geometry">
            <mxPoint x="370" y="400" as="sourcePoint" />
            <mxPoint x="430" y="375" as="targetPoint" />
          </mxGeometry>
        </mxCell>
        <mxCell id="AlXySb3WD6Xx3yzlpo8Q-24" value="去调用组件接口进行重占用" style="rounded=1;whiteSpace=wrap;html=1;" vertex="1" parent="1">
          <mxGeometry x="740" y="350" width="120" height="60" as="geometry" />
        </mxCell>
        <mxCell id="AlXySb3WD6Xx3yzlpo8Q-26" value="" style="endArrow=classic;html=1;rounded=0;" edge="1" parent="1" target="AlXySb3WD6Xx3yzlpo8Q-24">
          <mxGeometry relative="1" as="geometry">
            <mxPoint x="540" y="380" as="sourcePoint" />
            <mxPoint x="690" y="370" as="targetPoint" />
          </mxGeometry>
        </mxCell>
        <mxCell id="AlXySb3WD6Xx3yzlpo8Q-27" value="&lt;font style=&quot;font-size: 14px;&quot;&gt;aPass注册及订阅&lt;/font&gt;" style="edgeLabel;resizable=0;html=1;;align=center;verticalAlign=middle;" connectable="0" vertex="1" parent="AlXySb3WD6Xx3yzlpo8Q-26">
          <mxGeometry relative="1" as="geometry" />
        </mxCell>
        <mxCell id="AlXySb3WD6Xx3yzlpo8Q-29" value="Container" style="swimlane;" vertex="1" parent="1">
          <mxGeometry x="870" y="300" width="170" height="160" as="geometry" />
        </mxCell>
        <mxCell id="AlXySb3WD6Xx3yzlpo8Q-30" value="2.服务注册与订阅(RPC)" style="text;html=1;align=center;verticalAlign=middle;resizable=0;points=[];autosize=1;strokeColor=none;fillColor=none;" vertex="1" parent="AlXySb3WD6Xx3yzlpo8Q-29">
          <mxGeometry x="10" y="95" width="150" height="30" as="geometry" />
        </mxCell>
        <mxCell id="AlXySb3WD6Xx3yzlpo8Q-31" value="1.线程池相关" style="text;html=1;align=center;verticalAlign=middle;resizable=0;points=[];autosize=1;strokeColor=none;fillColor=none;" vertex="1" parent="AlXySb3WD6Xx3yzlpo8Q-29">
          <mxGeometry x="25" y="37.5" width="90" height="30" as="geometry" />
        </mxCell>
        <mxCell id="AlXySb3WD6Xx3yzlpo8Q-35" value="补充" style="swimlane;fontStyle=0;childLayout=stackLayout;horizontal=1;startSize=30;horizontalStack=0;resizeParent=1;resizeParentMax=0;resizeLast=0;collapsible=1;marginBottom=0;whiteSpace=wrap;html=1;" vertex="1" parent="1">
          <mxGeometry x="189" y="470" width="470" height="120" as="geometry" />
        </mxCell>
        <mxCell id="AlXySb3WD6Xx3yzlpo8Q-36" value="1.核心的概念，为何称为返账" style="text;strokeColor=none;fillColor=none;align=left;verticalAlign=middle;spacingLeft=4;spacingRight=4;overflow=hidden;points=[[0,0.5],[1,0.5]];portConstraint=eastwest;rotatable=0;whiteSpace=wrap;html=1;" vertex="1" parent="AlXySb3WD6Xx3yzlpo8Q-35">
          <mxGeometry y="30" width="470" height="30" as="geometry" />
        </mxCell>
        <mxCell id="AlXySb3WD6Xx3yzlpo8Q-37" value="2.日间的职责，日终的职责" style="text;strokeColor=none;fillColor=none;align=left;verticalAlign=middle;spacingLeft=4;spacingRight=4;overflow=hidden;points=[[0,0.5],[1,0.5]];portConstraint=eastwest;rotatable=0;whiteSpace=wrap;html=1;" vertex="1" parent="AlXySb3WD6Xx3yzlpo8Q-35">
          <mxGeometry y="60" width="470" height="30" as="geometry" />
        </mxCell>
        <mxCell id="AlXySb3WD6Xx3yzlpo8Q-38" value="3.批处理与调度&amp;amp;批处理与应用" style="text;strokeColor=none;fillColor=none;align=left;verticalAlign=middle;spacingLeft=4;spacingRight=4;overflow=hidden;points=[[0,0.5],[1,0.5]];portConstraint=eastwest;rotatable=0;whiteSpace=wrap;html=1;" vertex="1" parent="AlXySb3WD6Xx3yzlpo8Q-35">
          <mxGeometry y="90" width="470" height="30" as="geometry" />
        </mxCell>
        <mxCell id="AlXySb3WD6Xx3yzlpo8Q-39" value="" style="shape=curlyBracket;whiteSpace=wrap;html=1;rounded=1;labelPosition=left;verticalLabelPosition=middle;align=right;verticalAlign=middle;" vertex="1" parent="1">
          <mxGeometry x="-160" y="125" width="40" height="295" as="geometry" />
        </mxCell>
        <mxCell id="AlXySb3WD6Xx3yzlpo8Q-40" value="&lt;font style=&quot;font-size: 14px;&quot;&gt;批处理&lt;/font&gt;" style="text;html=1;align=center;verticalAlign=middle;resizable=0;points=[];autosize=1;strokeColor=none;fillColor=none;" vertex="1" parent="1">
          <mxGeometry x="-210" y="257.5" width="70" height="30" as="geometry" />
        </mxCell>
      </root>
    </mxGraphModel>
  </diagram>
</mxfile>
